<svg xmlns="http://www.w3.org/2000/svg" viewBox="0 0 512 512" role="img" aria-label="因数小队图标">
  <rect width="512" height="512" rx="104" fill="#ff6fb1"/>
  <path d="M0 358c70-80 141-80 211 0s141 80 211 0 141-80 211 0v154H0z" fill="#7edcff"/>
  <path d="M38 398c58-52 116-52 174 0s116 52 174 0 116-52 174 0v114H38z" fill="#9cf2c9"/>
  <circle cx="142" cy="136" r="42" fill="#ffd84d"/>
  <circle cx="128" cy="100" r="34" fill="#fff8f5"/>
  <circle cx="170" cy="104" r="34" fill="#fff8f5"/>
  <circle cx="126" cy="152" r="34" fill="#fff8f5"/>
  <circle cx="174" cy="154" r="34" fill="#fff8f5"/>
  <circle cx="150" cy="130" r="31" fill="#ffd84d"/>
  <path d="M356 115q26-34 52 0M408 115q26-34 52 0" fill="none" stroke="#392241" stroke-width="16" stroke-linecap="round"/>
  <path d="M350 302c35-38 82-38 116 0-33 42-82 42-116 0z" fill="#ff914d" stroke="#fff8f5" stroke-width="12"/>
  <path d="M350 302l-42-28v56z" fill="#ff914d" stroke="#fff8f5" stroke-width="12" stroke-linejoin="round"/>
  <circle cx="438" cy="294" r="7" fill="#392241"/>
  <text x="256" y="276" text-anchor="middle" font-family="Arial Rounded MT Bold, PingFang SC, sans-serif" font-size="120" font-weight="900" fill="#392241">×</text>
  <text x="256" y="398" text-anchor="middle" font-family="Arial Rounded MT Bold, PingFang SC, sans-serif" font-size="112" font-weight="900" fill="#392241">9</text>
</svg>
